<?xml version="1.0" standalone="no"?>
<!DOCTYPE svg PUBLIC "-//W3C//DTD SVG 1.1//EN" "http://www.w3.org/Graphics/SVG/1.1/DTD/svg11.dtd" >
<svg xmlns="http://www.w3.org/2000/svg">
<metadata></metadata>
<defs>
<font id="franklin_gothic_extra_condeRg" horiz-adv-x="815" >
<font-face units-per-em="2048" ascent="1638" descent="-410" />
<missing-glyph horiz-adv-x="407" />
<glyph horiz-adv-x="0" />
<glyph horiz-adv-x="682" />
<glyph unicode=" "  horiz-adv-x="407" />
<glyph unicode="&#x09;" horiz-adv-x="407" />
<glyph unicode="&#xa0;" horiz-adv-x="407" />
<glyph unicode="!" horiz-adv-x="460" d="M86 1450h303l-70 -1018h-165zM96 0v279h277v-279h-277z" />
<glyph unicode="&#x22;" horiz-adv-x="643" d="M86 879v557h164v-557h-164zM395 879v557h164v-557h-164z" />
<glyph unicode="#" horiz-adv-x="1574" d="M70 428l61 172h297l90 252h-315l61 172h316l155 436h191l-154 -436h250l156 436h190l-154 -436h291l-59 -172h-293l-90 -252h309l-61 -172h-307l-156 -434h-191l156 434h-252l-158 -434h-190l156 434h-299zM618 598h256l91 254h-256z" />
<glyph unicode="$" d="M25 334l180 47q8 -86 35.5 -128.5t83.5 -49.5v428q-140 97 -207.5 204t-67.5 240q0 148 74.5 243t218.5 130v121h123v-117q117 -15 180 -88t82 -217l-168 -39q-5 80 -25.5 120.5t-68.5 53.5v-434q104 -81 162.5 -144t90.5 -139.5t32 -169.5q0 -155 -80.5 -259.5 t-223.5 -135.5v-164h-122v162q-144 15 -215.5 95.5t-83.5 240.5zM244 1108q0 -101 98 -174v342q-47 -27 -72.5 -71.5t-25.5 -96.5zM446 195q105 42 105 155q0 50 -25.5 94.5t-79.5 98.5v-348z" />
<glyph unicode="%" horiz-adv-x="1189" d="M53 1087q0 189 58.5 286t171.5 97q235 0 235 -383q0 -190 -58.5 -287.5t-172.5 -97.5q-234 0 -234 385zM88 -25l844 1495h162l-844 -1495h-162zM223 1098q0 -146 14 -213.5t50 -67.5q35 0 47 62t12 206q0 148 -11.5 209.5t-47.5 61.5q-64 0 -64 -258zM678 358 q0 189 58 286t171 97q236 0 236 -383q0 -190 -59 -286.5t-173 -96.5q-118 0 -175.5 94.5t-57.5 288.5zM850 371q0 -149 14 -215t51 -66q34 0 47 62.5t13 203.5q0 145 -13 208t-49 63q-63 0 -63 -256z" />
<glyph unicode="&#x26;" horiz-adv-x="942" d="M29 330q0 103 55 212t170 257q-111 234 -111 358q0 132 92.5 224t225.5 92q125 0 207 -80t82 -205q0 -107 -59.5 -210t-182.5 -218l129 -230q41 70 63 246l191 -35q-35 -271 -115 -419q44 -81 144 -103l8 -213q-32 -4 -49 -4q-132 0 -230 113q-117 -144 -274 -144 q-149 0 -247.5 102t-98.5 257zM287 397q0 -72 42 -124t97 -52q50 0 94 62l-172 303q-61 -94 -61 -189zM373 1161q0 -74 55 -190q94 126 94 190q0 44 -20 71.5t-49 27.5q-35 0 -57.5 -28t-22.5 -71z" />
<glyph unicode="'" horiz-adv-x="333" d="M86 879v557h164v-557h-164z" />
<glyph unicode="(" horiz-adv-x="540" d="M96 565q0 450 316 922l151 -76q-244 -465 -244 -844q0 -401 254 -862l-147 -76q-330 485 -330 936z" />
<glyph unicode=")" horiz-adv-x="540" d="M-33 1411l148 76q329 -484 329 -936t-315 -922l-154 76q246 469 246 844q0 401 -254 862z" />
<glyph unicode="*" horiz-adv-x="929" d="M86 963v206l279 -47l-179 219l179 105l100 -266l98 266l180 -105l-180 -219l281 47v-208l-281 47l180 -220l-180 -104l-98 266l-100 -266l-179 104l179 220z" />
<glyph unicode="+" horiz-adv-x="1705" d="M254 528v166h514v527h170v-527h514v-166h-514v-528h-170v528h-514z" />
<glyph unicode="," horiz-adv-x="407" d="M68 0v281h276v-281l-176 -336h-94l86 336h-92z" />
<glyph unicode="-" horiz-adv-x="512" d="M63 422v213h381v-213h-381z" />
<glyph unicode="." horiz-adv-x="407" d="M68 0v279h278v-279h-278z" />
<glyph unicode="/" horiz-adv-x="796" d="M25 -190l600 1660h151l-600 -1660h-151z" />
<glyph unicode="0" d="M51 725q0 368 90.5 556.5t261.5 188.5q363 0 363 -745q0 -371 -90 -560.5t-264 -189.5q-361 0 -361 750zM324 573q0 -223 15 -307t71 -84t71 84t15 307v308q0 224 -15 308.5t-71 84.5t-71 -84.5t-15 -308.5v-154v-154z" />
<glyph unicode="1" d="M135 0v209h154v932l-150 -23v170q148 44 271 158h143v-1237h152v-209h-570z" />
<glyph unicode="2" d="M57 0v209q216 353 280 474q135 253 140 412v15q0 71 -22 109t-58 38q-52 0 -68.5 -50.5t-23.5 -188.5l-235 12v6q0 204 93.5 319t250.5 115q146 0 240 -99t94 -259q0 -165 -109 -367t-338 -495h422v-250h-666z" />
<glyph unicode="3" d="M37 348l231 23q0 -94 22 -137.5t72 -43.5q53 0 82 59.5t29 176.5q0 119 -50 170t-165 51h-22v203q32 -4 49 -4q89 0 131.5 57.5t42.5 175.5q0 86 -23 134.5t-59 48.5q-44 0 -64.5 -42t-25.5 -133l-219 19q10 177 93 270.5t226 93.5q153 0 241.5 -103.5t88.5 -287.5 q0 -115 -43.5 -192.5t-136.5 -128.5q105 -38 154.5 -123.5t49.5 -224.5q0 -213 -95 -324t-273 -111q-159 0 -245.5 95.5t-90.5 277.5z" />
<glyph unicode="4" d="M59 362v195l283 889h320v-889h118v-195h-118v-362h-254v362h-349zM227 557h181v610z" />
<glyph unicode="5" d="M63 315v33l240 23v-29q0 -149 82 -149q107 0 107 239q0 275 -127 275q-79 0 -113 -105l-178 64l53 780h567v-248h-372l-25 -317q79 45 154 45q143 0 225 -116t82 -329q0 -248 -96.5 -377t-280.5 -129q-150 0 -234 89t-84 251z" />
<glyph unicode="6" d="M59 655q0 413 91 614t286 201q147 0 228 -101t81 -290l-239 -12q-2 101 -17 145.5t-53 44.5q-53 0 -76.5 -102.5t-29.5 -331.5q101 90 184 90q109 0 179.5 -107t70.5 -296q0 -255 -94.5 -395t-257.5 -140q-353 0 -353 680zM322 573q0 -189 27 -290t75 -101q47 0 60.5 74 t13.5 262q0 101 -18 144t-72 43q-86 0 -86 -132z" />
<glyph unicode="7" d="M63 1206v240h662v-150q-246 -510 -246 -1202q0 -16 1 -47t1 -47h-325q67 620 323 1206h-416z" />
<glyph unicode="8" d="M49 340q0 112 51 202t158 175q-164 170 -164 387q0 163 91 264.5t231 101.5q146 0 233.5 -89t87.5 -234q0 -101 -43 -184t-135 -166q104 -104 154.5 -209.5t50.5 -225.5q0 -181 -99.5 -284t-265.5 -103q-157 0 -253.5 100t-96.5 265zM283 350q0 -170 116 -170q55 0 91 43 t36 109q0 65 -37.5 126t-117.5 138q-88 -114 -88 -246zM324 1139q0 -102 114 -228q84 113 84 217q0 69 -28 108.5t-76 39.5q-37 0 -65.5 -38.5t-28.5 -98.5z" />
<glyph unicode="9" d="M51 934q0 255 95.5 395.5t259.5 140.5q352 0 352 -682q0 -412 -92 -612.5t-287 -200.5q-147 0 -228 101.5t-81 290.5l239 12q2 -101 17 -146t53 -45q53 0 76.5 102.5t29.5 330.5q-102 -91 -184 -91q-109 0 -179.5 107.5t-70.5 296.5zM317 926q0 -99 19 -142t74 -43 q86 0 86 131q0 189 -27.5 290.5t-75.5 101.5q-47 0 -61.5 -76t-14.5 -262z" />
<glyph unicode=":" horiz-adv-x="409" d="M68 0v279h278v-279h-278zM68 750v276h278v-276h-278z" />
<glyph unicode=";" horiz-adv-x="409" d="M63 0v281h277v-281l-176 -336h-92l84 336h-93zM63 748v276h279v-276h-279z" />
<glyph unicode="&#x3c;" horiz-adv-x="1705" d="M264 530v160l1178 486v-185l-934 -381l934 -381v-182z" />
<glyph unicode="=" horiz-adv-x="1705" d="M254 322v165h1198v-165h-1198zM254 733v168h1198v-168h-1198z" />
<glyph unicode="&#x3e;" horiz-adv-x="1705" d="M264 47v182l934 381l-934 381v185l1178 -486v-160z" />
<glyph unicode="?" horiz-adv-x="782" d="M59 1059v12q0 193 87.5 296t250.5 103q146 0 238 -89.5t92 -227.5q0 -39 -6.5 -73t-21.5 -67.5t-26 -53t-34 -55.5t-31 -48q-57 -95 -85.5 -181.5t-28.5 -185.5q0 -7 1 -22t1 -23h-230v31q0 234 94 412q7 14 26 49.5t26.5 50t20 42.5t18 45t10 40t4.5 43q0 50 -24.5 80.5 t-65.5 30.5q-57 0 -80.5 -52.5t-26.5 -171.5zM240 0v274h278v-274h-278z" />
<glyph unicode="@" horiz-adv-x="2048" d="M98 522q0 333 205 586q147 179 353 272t460 93q168 0 316.5 -46t253.5 -127q264 -203 264 -536q0 -163 -65 -302.5t-185 -236.5q-139 -112 -318 -112q-106 0 -157 40.5t-51 125.5v4q-55 -87 -128.5 -127.5t-175.5 -40.5q-152 0 -232.5 86.5t-80.5 249.5q0 156 64.5 284.5 t172.5 200.5t234 72q173 0 248 -142l55 107h154l-148 -586q-8 -40 -8 -49q0 -38 26.5 -61t69.5 -23q49 0 105.5 29.5t107.5 85.5q71 76 109.5 177t38.5 216q0 251 -185.5 410t-490.5 159q-276 0 -471 -125q-182 -114 -279.5 -291.5t-97.5 -394.5q0 -312 209.5 -499 t558.5 -187q167 0 325 49t290 142l67 -99q-300 -227 -674 -227q-386 0 -632 190q-308 235 -308 633zM741 444q0 -99 45 -151.5t129 -52.5q89 0 163 66t100 173l55 228q-13 85 -61 130.5t-123 45.5q-127 0 -217.5 -128.5t-90.5 -310.5z" />
<glyph unicode="A" horiz-adv-x="780" d="M10 0l205 1446h371l186 -1446h-250l-41 309h-207l-36 -309h-228zM301 547h152l-76 641z" />
<glyph unicode="B" horiz-adv-x="882" d="M86 0v1446h336q387 0 387 -340q0 -124 -58 -208t-171 -120q130 -35 188.5 -119t58.5 -231q0 -428 -401 -428h-340zM352 238q5 0 14 -1t13 -1q83 0 119.5 49t36.5 157q0 112 -35 162.5t-113 50.5q-23 0 -35 -2v-415zM352 893h25q74 0 107.5 38t33.5 122q0 88 -31.5 127 t-101.5 39q-21 0 -33 -2v-324z" />
<glyph unicode="C" horiz-adv-x="864" d="M57 690q0 785 400 785q172 0 263 -129t91 -379v-33h-274v67q0 136 -17.5 196t-66.5 60q-68 0 -88.5 -129.5t-20.5 -455.5q0 -249 21.5 -350t89.5 -101q55 0 79.5 76.5t24.5 237.5v20h248q-9 -582 -369 -582q-199 0 -290 175t-91 542z" />
<glyph unicode="D" horiz-adv-x="899" d="M86 0v1446h307q131 0 217 -40.5t138 -131.5t73 -222.5t21 -328.5q0 -198 -21 -329.5t-72.5 -222.5t-138 -131t-217.5 -40h-307zM365 240q10 -2 30 -2q36 0 61 10.5t42.5 38t27.5 59t15 89t6.5 112.5t1.5 143q0 214 -6.5 317.5t-28.5 137.5q-40 61 -131 61h-18v-966z" />
<glyph unicode="E" horiz-adv-x="749" d="M86 0v1446h621v-240h-342v-336h258v-237h-258v-395h354v-238h-633z" />
<glyph unicode="F" horiz-adv-x="724" d="M76 0v1446h620v-240h-340v-336h256v-237h-256v-633h-280z" />
<glyph unicode="G" horiz-adv-x="876" d="M57 672q0 405 100 604t308 199q178 0 262 -120.5t84 -369.5q0 -10 -1 -30.5t-1 -32.5h-260q0 13 1 36.5t1 34.5q0 133 -20.5 191.5t-73.5 58.5q-71 0 -88 -120.5t-17 -460.5q0 -247 21.5 -348t93.5 -101q115 0 115 240h-105v241h342v-694h-121l-36 90 q-113 -119 -244 -119q-175 0 -268 177.5t-93 523.5z" />
<glyph unicode="H" horiz-adv-x="892" d="M86 0v1446h279v-582h163v582h279v-1446h-279v627h-163v-627h-279z" />
<glyph unicode="I" horiz-adv-x="450" d="M86 0v1446h279v-1446h-279z" />
<glyph unicode="J" horiz-adv-x="569" d="M29 -6v231q27 -4 71 -4q105 0 105 115v1110h280v-1167q0 -160 -69.5 -234t-227.5 -74q-56 0 -159 23z" />
<glyph unicode="K" horiz-adv-x="858" d="M86 0v1446h279v-559l223 559h250l-205 -467l229 -979h-266l-141 639l-90 -190v-449h-279z" />
<glyph unicode="L" horiz-adv-x="702" d="M86 0v1446h279v-1208h348v-238h-627z" />
<glyph unicode="M" horiz-adv-x="1144" d="M86 0v1446h363l120 -703l123 703h367v-1446h-252v1028l-182 -1028h-156l-174 1028v-1028h-209z" />
<glyph unicode="N" horiz-adv-x="901" d="M86 0v1446h256l174 -508q60 -175 74 -281v789h225v-1446h-217l-199 559q-65 179 -88 293v-852h-225z" />
<glyph unicode="O" horiz-adv-x="913" d="M57 723q0 390 93.5 570t310.5 180q210 0 302.5 -182t92.5 -568q0 -387 -91.5 -568.5t-301.5 -181.5q-218 0 -312 180.5t-94 569.5zM350 713q0 -282 20 -390t91 -108q60 0 81 106t21 351q0 323 -18.5 445t-85.5 122q-71 0 -90 -112.5t-19 -413.5z" />
<glyph unicode="P" horiz-adv-x="864" d="M86 0v1446h338q211 0 311.5 -107.5t100.5 -334.5q0 -221 -99 -323.5t-309 -102.5q-40 0 -63 2v-580h-279zM367 813h18q91 0 131.5 49t40.5 156q0 99 -32.5 145.5t-102.5 46.5h-55v-397z" />
<glyph unicode="Q" horiz-adv-x="913" d="M57 729q0 387 93.5 565.5t310.5 178.5q210 0 302.5 -180.5t92.5 -563.5q0 -237 -34 -392.5t-122 -260.5q22 -66 109 -66h16v-239q-50 -4 -67 -4q-115 0 -178 52t-86 165q-44 -7 -70 -7q-186 0 -276.5 186.5t-90.5 565.5zM350 719q0 -282 20 -390t91 -108q60 0 81 105 t21 350q0 323 -18.5 445t-85.5 122q-71 0 -90 -111.5t-19 -412.5z" />
<glyph unicode="R" horiz-adv-x="892" d="M86 0v1446h338q211 0 311.5 -99t100.5 -309q0 -119 -38 -204t-120 -146l160 -688h-269l-129 625h-75v-625h-279zM367 813h18q92 0 132 49t40 160q0 102 -32.5 151.5t-102.5 49.5h-55v-410z" />
<glyph unicode="S" horiz-adv-x="831" d="M47 434h254q-2 -20 -2 -57q0 -176 113 -176q48 0 78 35.5t30 97.5q0 61 -31.5 107.5t-105.5 115.5q-11 11 -68 61.5t-92 87.5t-67 80q-93 132 -93 287q0 177 103 288.5t260 111.5q156 0 247 -106t91 -296q0 -7 -1 -22t-1 -23h-246q4 46 4 66q0 75 -27.5 114t-78.5 39 q-42 0 -72.5 -35.5t-30.5 -87.5q0 -50 27.5 -95t85.5 -99q30 -28 87 -77.5t89 -80t53 -57.5q131 -161 131 -334q0 -185 -104 -295.5t-281 -110.5q-352 0 -352 461z" />
<glyph unicode="T" horiz-adv-x="753" d="M14 1208v238h725v-238h-223v-1208h-278v1208h-224z" />
<glyph unicode="U" horiz-adv-x="874" d="M86 322v1124h279v-1118q0 -117 90 -117q46 0 66 28t20 89v1118h247v-1124q0 -349 -339 -349q-184 0 -273.5 86t-89.5 263z" />
<glyph unicode="V" horiz-adv-x="765" d="M10 1446h271l120 -977l134 977h221l-215 -1446h-314z" />
<glyph unicode="W" horiz-adv-x="1153" d="M10 1446h254l58 -612q13 -130 20 -295q2 47 7 97t9 79t10.5 75t8.5 58l86 598h256l86 -598q1 -11 7.5 -52.5t10 -72t8.5 -82.5t7 -102q8 188 20 295l78 612h207l-203 -1446h-252l-88 666q-25 202 -31 362q0 -39 -2 -77.5t-7.5 -81t-8.5 -67.5t-11 -73.5t-10 -62.5 l-98 -666h-256z" />
<glyph unicode="X" horiz-adv-x="813" d="M43 0l240 711l-240 735h266l76 -258q31 -100 35 -158q15 114 31 158l92 258h229l-242 -692l242 -754h-254l-76 242q-39 133 -47 182q-13 -65 -55 -186l-80 -238h-217z" />
<glyph unicode="Y" horiz-adv-x="827" d="M12 1446h279l137 -543l164 543h225l-285 -862v-584h-280v584z" />
<glyph unicode="Z" horiz-adv-x="782" d="M61 0v170l342 1040h-305v236h623v-166l-344 -1042h342v-238h-658z" />
<glyph unicode="[" horiz-adv-x="587" d="M166 -332v1778h409v-86h-190v-1606h190v-86h-409z" />
<glyph unicode="\" horiz-adv-x="796" d="M25 1470h151l600 -1660h-151z" />
<glyph unicode="]" horiz-adv-x="587" d="M10 -246h191v1606h-191v86h410v-1778h-410v86z" />
<glyph unicode="^" horiz-adv-x="2048" d="M418 899l497 561h218l495 -561h-207l-397 397l-399 -397h-207z" />
<glyph unicode="_" horiz-adv-x="1024" d="M0 -311h1024v-172h-1024v172z" />
<glyph unicode="`" horiz-adv-x="1024" d="M227 1540h260l197 -371h-141z" />
<glyph unicode="a" horiz-adv-x="743" d="M37 279q0 170 94.5 261t290.5 113v142q0 26 -17 42.5t-43 16.5q-34 0 -51 -27t-22 -84l-217 15q10 146 88 220.5t217 74.5q159 0 226 -74t67 -236v-571q0 -88 20 -172h-225q-26 54 -29 92q-82 -117 -188 -117q-89 0 -150 84.5t-61 219.5zM281 319q0 -62 20.5 -98.5 t52.5 -36.5q40 0 68 52v256q-67 -4 -104 -49.5t-37 -123.5z" />
<glyph unicode="b" horiz-adv-x="784" d="M59 0q21 88 21 172v1276h237v-463q86 68 162 68q122 0 190 -131.5t68 -382.5q0 -267 -83.5 -416.5t-215.5 -149.5q-123 0 -207 146l-57 -119h-115zM317 221q0 -35 15 -54.5t43 -19.5q62 0 80 88t18 312q0 182 -17.5 258t-72.5 76q-27 0 -46.5 -22.5t-19.5 -51.5v-586z " />
<glyph unicode="c" horiz-adv-x="722" d="M47 492q0 270 88 415.5t242 145.5q136 0 210.5 -95t74.5 -274v-33h-213v43q0 172 -68 172q-41 0 -53.5 -63.5t-12.5 -220.5q0 -220 15.5 -311t62.5 -91q39 0 62.5 53.5t23.5 153.5v12l197 -6q0 -203 -79.5 -310.5t-225.5 -107.5q-160 0 -242 130.5t-82 386.5z" />
<glyph unicode="d" horiz-adv-x="739" d="M47 489q0 277 60.5 412t187.5 135q96 0 149 -69v489h238v-1284q0 -88 20 -172h-258v51q-82 -76 -170 -76q-121 0 -174 125.5t-53 388.5zM305 477q0 -180 16 -256t66 -76q23 0 40 21.5t17 50.5v588q0 72 -49 72q-57 0 -73.5 -88t-16.5 -312z" />
<glyph unicode="e" horiz-adv-x="745" d="M47 502q0 266 88 408.5t244 142.5q152 0 231.5 -134.5t79.5 -396.5q0 -55 -2 -84h-375v-32q0 -113 22.5 -166.5t74.5 -53.5q45 0 74.5 37t35.5 101l178 -39q-34 -154 -111.5 -233t-195.5 -79q-156 0 -250 140t-94 389zM305 694q0 -35 2 -55h146q2 20 2 59 q0 81 -17.5 119.5t-56.5 38.5q-76 0 -76 -162z" />
<glyph unicode="f" horiz-adv-x="512" d="M0 829v199h127v205q0 122 55.5 176.5t182.5 54.5q68 0 151 -26v-191q-37 6 -63 6q-42 0 -65 -21.5t-23 -60.5v-143h147v-199h-147v-829h-238v829h-127z" />
<glyph unicode="g" horiz-adv-x="731" d="M-12 -141q0 132 192 184q-70 13 -108.5 57.5t-38.5 112.5q0 131 155 213q-131 79 -131 285q0 160 86.5 253t229.5 93q83 0 162 -49q73 125 186 125q14 0 29 -3v-186q-30 6 -54 6q-39 0 -75 -26q53 -86 53 -230q0 -140 -75.5 -230.5t-192.5 -90.5q-17 0 -48 3t-45 3 q-67 0 -67 -47q0 -20 10.5 -32t34 -19t48.5 -11t66.5 -12t75.5 -18q131 -39 191.5 -108t60.5 -189q0 -152 -99 -235t-284 -83q-174 0 -268 62.5t-94 171.5zM195 -111q0 -44 40.5 -64t126.5 -20q74 0 114 23.5t40 65.5q0 90 -162 90q-76 0 -117.5 -25.5t-41.5 -69.5zM293 727 q0 -100 18 -146t60 -46q44 0 59.5 41t15.5 137t-16 139t-59 43q-42 0 -60 -40t-18 -128z" />
<glyph unicode="h" horiz-adv-x="757" d="M82 0v1456h237v-520q51 61 98 90t101 29q84 0 124 -50.5t40 -152.5v-852h-238v791q0 24 -14.5 38.5t-38.5 14.5q-25 0 -45 -17t-27 -47v-780h-237z" />
<glyph unicode="i" horiz-adv-x="397" d="M80 0v1028h237v-1028h-237zM80 1196v248h237v-248h-237z" />
<glyph unicode="j" horiz-adv-x="397" d="M-23 -170q10 -2 27 -2q43 0 62.5 23t19.5 73v1104h236v-1128q0 -143 -65 -209t-210 -66q-20 0 -70 4v201zM86 1196v246h236v-246h-236z" />
<glyph unicode="k" horiz-adv-x="716" d="M80 0v1456h237v-747l164 319h213l-159 -297l188 -731h-250l-108 487l-48 -90v-397h-237z" />
<glyph unicode="l" horiz-adv-x="397" d="M80 0v1456h237v-1456h-237z" />
<glyph unicode="m" horiz-adv-x="1120" d="M80 0v1028h237v-96q101 119 201 119q117 0 164 -119q101 119 201 119q84 0 122.5 -50t38.5 -153v-848h-237v780q0 64 -51 64q-45 0 -74 -51v-793h-238v780q0 64 -53 64q-45 0 -74 -51v-793h-237z" />
<glyph unicode="n" horiz-adv-x="757" d="M82 0v1028h237v-92q51 61 98 90t101 29q84 0 124 -50.5t40 -152.5v-852h-238v774q0 33 -14 51.5t-39 18.5q-53 0 -72 -64v-780h-237z" />
<glyph unicode="o" horiz-adv-x="782" d="M47 512q0 268 87.5 405.5t256.5 137.5t256.5 -137t87.5 -406q0 -260 -90 -397.5t-254 -137.5q-167 0 -255.5 137t-88.5 398zM299 514q0 -176 21 -259t71 -83q53 0 72.5 80.5t19.5 261.5q0 187 -18.5 265.5t-73.5 78.5q-51 0 -71.5 -81.5t-20.5 -262.5z" />
<glyph unicode="p" horiz-adv-x="763" d="M80 -375v1403h237v-51q82 76 170 76q121 0 175.5 -126t54.5 -388q0 -277 -60.5 -412t-187.5 -135q-45 0 -86 19t-66 52v-438h-237zM317 223q0 -71 52 -71q57 0 72.5 86.5t15.5 312.5q0 182 -15.5 257t-64.5 75q-24 0 -42 -21.5t-18 -50.5v-588z" />
<glyph unicode="q" horiz-adv-x="784" d="M47 492q0 266 83.5 414.5t215.5 148.5q125 0 209 -146l55 119h95v-1403h-238v426q-85 -67 -162 -67q-122 0 -190 130t-68 378zM313 481q0 -184 16.5 -259t71.5 -75q27 0 46.5 22.5t19.5 51.5v586q0 74 -55 74q-62 0 -80.5 -88.5t-18.5 -311.5z" />
<glyph unicode="r" horiz-adv-x="583" d="M80 0v1028h237v-147q92 148 261 163v-272q-58 12 -99 12q-76 0 -119 -32t-43 -86v-666h-237z" />
<glyph unicode="s" horiz-adv-x="698" d="M39 276v25l194 31q5 -84 28.5 -123t72.5 -39q39 0 65.5 24t26.5 58q0 9 -1.5 17t-2.5 14t-5.5 13.5t-6.5 11.5t-9 11.5t-9.5 10.5t-12.5 11t-13 10.5t-15.5 11.5t-16.5 12q-12 9 -46 35t-45 35t-39.5 31.5t-38.5 33t-31 32.5t-29 36t-21 36t-18 41.5t-9 44t-4 50.5 q0 138 84 220.5t225 82.5q125 0 197 -74.5t82 -218.5l-199 -33v6q0 63 -24.5 99t-63.5 36q-28 0 -50.5 -22.5t-22.5 -54.5q0 -13 3 -25.5t6.5 -21.5t13.5 -20.5t15.5 -18t21.5 -19t23 -17t28.5 -19.5t29.5 -21q127 -88 182 -160.5t55 -183.5q0 -141 -87 -225.5t-234 -84.5 q-141 0 -220 79.5t-79 221.5z" />
<glyph unicode="t" horiz-adv-x="550" d="M14 829v199h105l24 346h211v-346h158v-199h-158v-571q0 -35 26.5 -55.5t72.5 -20.5q19 0 69 11v-183q-113 -37 -192 -37q-125 0 -168 55.5t-43 188.5v612h-105z" />
<glyph unicode="u" horiz-adv-x="755" d="M82 174v854h235v-774q0 -34 14.5 -53t39.5 -19q54 0 73 64v782h236v-856q0 -79 22 -172h-258v90q-99 -117 -200 -117q-84 0 -123 49.5t-39 151.5z" />
<glyph unicode="v" horiz-adv-x="671" d="M25 1028h237l64 -416q22 -162 26 -223q4 75 25 223l65 416h207l-203 -1028h-223z" />
<glyph unicode="w" horiz-adv-x="946" d="M25 1028h215l53 -440q12 -111 20 -226q3 61 25 232l57 434h195l53 -440q15 -137 21 -226q3 73 24 232l57 434h177l-144 -1028h-223l-63 414q-22 159 -25 207q-10 -131 -23 -205l-73 -416h-211z" />
<glyph unicode="x" horiz-adv-x="671" d="M10 0l207 506l-203 522h258l80 -209l84 209h215l-198 -471l211 -557h-246l-99 248l-102 -248h-207z" />
<glyph unicode="y" horiz-adv-x="669" d="M25 1028h237l78 -416q14 -78 25 -206q13 158 20 202l61 420h201l-188 -1079q-30 -175 -108.5 -248.5t-244.5 -73.5q-44 0 -71 2v207q46 -4 63 -4q146 0 146 107q0 32 -8 71z" />
<glyph unicode="z" horiz-adv-x="671" d="M43 0v156l301 675h-295v197h578v-133l-308 -696h310v-199h-586z" />
<glyph unicode="{" horiz-adv-x="1024" d="M162 442v179q7 0 21.5 -1.5t21.5 -1.5q127 0 179 59.5t52 201.5v247q0 128 19.5 195.5t83.5 105.5q50 29 117.5 39.5t172.5 10.5h45v-179q-8 0 -24 1t-23 1q-115 0 -150.5 -44.5t-35.5 -170.5v-241q0 -147 -41 -215.5t-162 -98.5q121 -30 162 -99t41 -214v-240 q0 -65 7 -103t27.5 -65.5t56.5 -38t97 -10.5q7 0 22 1t23 1v-176h-63q-189 0 -272 49q-63 37 -83 105t-20 194v248q0 142 -51.5 202t-179.5 60q-7 0 -21.5 -1t-21.5 -1z" />
<glyph unicode="|" horiz-adv-x="1024" d="M424 -483v2048h178v-2048h-178z" />
<glyph unicode="}" horiz-adv-x="1024" d="M152 -238q8 0 23 -1t22 -1q116 0 151 45t35 172v240q0 145 42 214t163 99q-122 29 -163.5 98.5t-41.5 215.5v241q0 126 -35 170.5t-149 44.5q-7 0 -23 -1t-24 -1v179h45q104 0 171.5 -10.5t116.5 -39.5q64 -38 83.5 -106t19.5 -195v-247q0 -142 51.5 -201.5t179.5 -59.5 q6 0 21 1.5t22 1.5v-179q-7 0 -21.5 1t-21.5 1q-128 0 -179.5 -60t-51.5 -202v-248q0 -127 -19.5 -194t-83.5 -105q-48 -29 -115.5 -39t-172.5 -10h-45v176z" />
<glyph unicode="~" horiz-adv-x="1705" d="M178 434v187q210 143 387 143q122 0 293 -59q12 -4 48.5 -17t51 -18t45.5 -14.5t51 -13.5t46.5 -7.5t50.5 -3.5q166 0 379 153v-184q-204 -141 -381 -141q-91 0 -191 35q-19 6 -79.5 27t-85.5 28.5t-71.5 20.5t-83.5 17.5t-75 4.5q-160 0 -385 -158z" />
<glyph unicode="&#xa1;" horiz-adv-x="460" d="M84 0l70 1024h165l70 -1024h-305zM100 1178v278h279v-278h-279z" />
<glyph unicode="&#xa2;" d="M88 518q0 271 87.5 414t246.5 143h22l37 164h146l-49 -213q124 -85 124 -317v-35h-215q0 8 1 24t1 23q0 168 -67 168q-41 0 -53.5 -63t-12.5 -220q0 -220 15.5 -311.5t62.5 -91.5q39 0 61.5 54t22.5 155v12l199 -6q0 -201 -79 -309.5t-218 -108.5q-44 0 -80 8l-43 -180 h-139l55 248q-125 116 -125 442z" />
<glyph unicode="&#xa3;" d="M29 651v131h188q-61 158 -61 293q0 182 91.5 288.5t241.5 106.5q293 0 293 -372v-31h-176q2 16 2 47q0 176 -110 176q-55 0 -85 -44t-30 -126q0 -68 25 -151l59 -187h231v-131h-196q26 -104 26 -196q0 -165 -73 -262q46 -37 88 -37q114 0 114 202v27h158 q-1 -199 -71.5 -304.5t-194.5 -105.5q-86 0 -199 86q-91 -88 -209 -88q-8 0 -73 9v196q123 2 178 56.5t55 175.5q0 75 -43 241h-229z" />
<glyph unicode="&#xa4;" d="M-20 539l43 123h75v120h-118l43 125h83q19 278 108 420.5t241 142.5q147 0 236.5 -128.5t99.5 -364.5h-261q0 14 -1 41t-1 39q0 62 -2.5 99t-10 67.5t-23 43.5t-39.5 13q-54 0 -66.5 -67t-13.5 -252v-54h241l-45 -125h-196v-120h153l-45 -123h-108q2 -197 17 -273t71 -76 q34 0 53.5 31.5t26.5 88.5t8 157h237q-12 -243 -97.5 -367.5t-237.5 -124.5q-151 0 -241.5 144.5t-105.5 419.5h-124z" />
<glyph unicode="&#xa5;" d="M14 600v123h224l-35 121h-189v123h150l-144 479h234l164 -606l184 606h207l-168 -479h160v-123h-203l-43 -121h246v-123h-291v-600h-234v600h-262z" />
<glyph unicode="&#xa6;" horiz-adv-x="1024" d="M424 -350v758h178v-758h-178zM424 674v758h178v-758h-178z" />
<glyph unicode="&#xa7;" horiz-adv-x="929" d="M68 573q0 88 49 168.5t143 139.5q-143 110 -143 270q0 143 97.5 233.5t262.5 90.5q146 0 336 -72v-225q-195 94 -311 94q-59 0 -95 -31t-36 -76q0 -25 8 -45t19 -33.5t35 -28.5t43.5 -24.5t57 -28t64.5 -32.5q72 -39 116 -68.5t80.5 -67.5t52 -82t15.5 -102 q0 -82 -40.5 -152t-129.5 -153q77 -61 112.5 -125.5t35.5 -148.5q0 -156 -110.5 -247t-307.5 -91q-192 0 -332 74v237q187 -100 332 -100q156 0 156 116q0 68 -43 95q-32 22 -121 59t-133 59q-213 107 -213 297zM307 631q0 -126 193 -187q64 52 94.5 94.5t30.5 86.5 q0 64 -43 101.5t-146 74.5q-68 -48 -98.5 -86.5t-30.5 -83.5z" />
<glyph unicode="&#xa8;" horiz-adv-x="1024" d="M291 1229v246h180v-246h-180zM571 1229v246h181v-246h-181z" />
<glyph unicode="&#xa9;" horiz-adv-x="1705" d="M113 731q0 146 57.5 281t163.5 243q212 215 518 215q309 0 526 -217q105 -105 160 -238.5t55 -283.5q0 -152 -54.5 -285.5t-158.5 -234.5q-109 -107 -245 -164t-283 -57q-146 0 -280 56.5t-240 162.5t-162.5 240.5t-56.5 281.5zM223 731q0 -257 187 -444q91 -91 205 -139 t239 -48q257 0 449 189q182 179 182 442q0 128 -46.5 243t-135.5 204q-184 184 -449 184t-444 -182q-91 -92 -139 -208t-48 -241zM457 725q0 209 110 332t291 123q147 0 243 -77t105 -200h-166q-10 73 -60 113.5t-130 40.5q-97 0 -154 -85t-57 -241q0 -153 58 -235t163 -82 q79 0 129 43.5t60 124.5h165q-8 -134 -106.5 -216.5t-253.5 -82.5q-182 0 -289.5 118.5t-107.5 323.5z" />
<glyph unicode="&#xaa;" horiz-adv-x="557" d="M29 920q0 120 70 183.5t218 78.5v100q0 18 -12.5 29.5t-32.5 11.5q-49 0 -55 -78l-164 10q9 101 68 154t162 53q120 0 169.5 -52t49.5 -165v-399q0 -55 16 -121h-170q-17 32 -20 63q-61 -79 -142 -79q-66 0 -111.5 58.5t-45.5 152.5zM211 948q0 -43 15.5 -68.5 t39.5 -25.5q30 0 51 35v180q-51 -3 -78.5 -34.5t-27.5 -86.5z" />
<glyph unicode="&#xab;" horiz-adv-x="778" d="M39 518l235 434l164 -65l-194 -369l198 -371l-168 -65zM352 518l238 434l164 -65l-195 -369l199 -371l-168 -65z" />
<glyph unicode="&#xac;" horiz-adv-x="1705" d="M254 696v166h1198v-502h-166v336h-1032z" />
<glyph unicode="&#xad;" horiz-adv-x="512" d="M63 422v213h381v-213h-381z" />
<glyph unicode="&#xae;" horiz-adv-x="1705" d="M113 731q0 148 58 285t165 244q210 210 516 210q312 0 530 -221q211 -214 211 -518q0 -313 -217 -524q-108 -105 -243.5 -161t-280.5 -56q-147 0 -282.5 57.5t-241.5 165.5q-104 106 -159.5 239t-55.5 279zM223 731q0 -256 183 -442q91 -91 204.5 -140t233.5 -49 q265 0 456 185q89 86 137 199t48 237q0 270 -180 453q-188 188 -451 188q-260 0 -440 -180q-92 -94 -141.5 -210.5t-49.5 -240.5zM551 330v829h319q173 0 262 -57.5t89 -167.5q0 -91 -48 -150t-137 -79l185 -375h-199l-164 346h-129v-346h-178zM729 786h117q99 0 145.5 30 t46.5 97q0 70 -49 102t-151 32h-109v-261z" />
<glyph unicode="&#xaf;" horiz-adv-x="1024" d="M291 1274v156h461v-156h-461z" />
<glyph unicode="&#xb0;" horiz-adv-x="673" d="M43 1163q0 124 86 210.5t209 86.5q122 0 208.5 -87t86.5 -210q0 -121 -86.5 -208t-210.5 -87q-123 0 -208 85.5t-85 209.5zM152 1165q0 -77 55 -131.5t131 -54.5q77 0 130.5 55t53.5 131q0 77 -54 131t-130 54q-77 0 -131.5 -54.5t-54.5 -130.5z" />
<glyph unicode="&#xb1;" horiz-adv-x="1705" d="M254 14v168h1198v-168h-1198zM254 707v165h514v334h170v-334h514v-165h-514v-334h-170v334h-514z" />
<glyph unicode="&#xb2;" horiz-adv-x="538" d="M37 578v124q160 238 205 318q73 134 73 223q0 43 -14.5 65.5t-38.5 22.5q-34 0 -45 -30t-16 -113l-156 8v4q0 122 62 191t165 69q96 0 159 -59.5t63 -155.5q0 -99 -72 -220.5t-223 -297.5h278v-149h-440z" />
<glyph unicode="&#xb3;" horiz-adv-x="538" d="M25 786l151 15q0 -109 64 -109q71 0 71 142q0 71 -32.5 102t-108.5 31h-14v120q10 -2 32 -2q115 0 115 140q0 52 -15 81t-40 29q-54 0 -60 -104l-143 10q6 107 60.5 163t150.5 56q100 0 158.5 -62.5t58.5 -172.5q0 -133 -119 -193q135 -45 135 -209q0 -127 -62.5 -193.5 t-180.5 -66.5q-104 0 -161 57t-60 166z" />
<glyph unicode="&#xb4;" horiz-adv-x="1024" d="M360 1169l197 371h258l-315 -371h-140z" />
<glyph unicode="&#xb5;" horiz-adv-x="1208" d="M-92 -430l297 1511h229l-125 -635q-12 -58 -12 -104q0 -97 46.5 -147t135.5 -50q125 0 195.5 91t109.5 290l109 555h225l-145 -739q-19 -100 -19 -133q0 -35 15.5 -50.5t52.5 -15.5q23 0 35 2l-33 -159q-67 -17 -150 -17q-149 0 -149 125v15q-41 -67 -108.5 -104.5 t-145.5 -37.5q-79 0 -136 25.5t-99 83.5l-99 -506h-229z" />
<glyph unicode="&#xb6;" horiz-adv-x="1024" d="M55 1130q0 156 106 252.5t285 96.5h523v-99h-117v-1380h-129v1380h-170v-1380h-129v784q-170 6 -269.5 101t-99.5 245z" />
<glyph unicode="&#xb7;" horiz-adv-x="407" d="M39 723q0 69 47.5 116.5t116.5 47.5t117.5 -48t48.5 -116q0 -69 -49 -117.5t-117 -48.5q-69 0 -116.5 48.5t-47.5 117.5z" />
<glyph unicode="&#xb8;" horiz-adv-x="1024" d="M283 -309q162 -43 256 -43q52 0 76 17.5t24 55.5t-28.5 54t-92.5 16q-37 0 -57 -2v211h102v-90h15q235 0 235 -191q0 -200 -264 -200q-106 0 -266 43v129z" />
<glyph unicode="&#xb9;" horiz-adv-x="538" d="M90 578v124h100v560l-98 -13v101q99 26 178 96h95v-744h100v-124h-375z" />
<glyph unicode="&#xba;" horiz-adv-x="587" d="M35 1083q0 187 66 283t192 96q258 0 258 -379q0 -183 -67 -278.5t-191 -95.5q-125 0 -191.5 95t-66.5 279zM225 1085q0 -123 16 -181t52 -58q40 0 54.5 56t14.5 183q0 130 -14 185t-55 55q-37 0 -52.5 -57.5t-15.5 -182.5z" />
<glyph unicode="&#xbb;" horiz-adv-x="778" d="M16 887l168 65l236 -434l-236 -436l-164 65l195 371zM332 887l168 65l235 -434l-235 -436l-164 65l194 371z" />
<glyph unicode="&#xbc;" horiz-adv-x="1370" d="M86 635v117h96v522l-94 -12v94q92 25 170 88h90v-692h96v-117h-358zM260 -25l694 1495h156l-694 -1495h-156zM893 203v108l178 498h201v-498h76v-108h-76v-203h-160v203h-219zM999 311h113v342z" />
<glyph unicode="&#xbd;" horiz-adv-x="1370" d="M86 635v117h96v522l-94 -12v94q92 25 170 88h90v-692h96v-117h-358zM260 -25l694 1495h156l-694 -1495h-156zM893 0v117q152 223 192 293q72 128 72 213q0 39 -13.5 60.5t-37.5 21.5q-32 0 -43 -30t-14 -106l-150 9v2q0 115 59 179t158 64q92 0 151.5 -55t59.5 -145 q0 -92 -68.5 -205.5t-211.5 -278.5h264v-139h-418z" />
<glyph unicode="&#xbe;" horiz-adv-x="1368" d="M23 829l147 13q0 -52 13.5 -76.5t45.5 -24.5q70 0 70 131q0 67 -31.5 96t-105.5 29h-15v113q5 0 16.5 -1t16.5 -1q109 0 109 131q0 48 -14.5 75t-36.5 27q-28 0 -41.5 -23.5t-16.5 -74.5l-137 10q6 99 58 152t143 53q96 0 151.5 -58.5t55.5 -160.5q0 -123 -113 -180 q129 -42 129 -195q0 -119 -60 -181t-171 -62q-100 0 -155 53.5t-58 154.5zM260 -25l694 1495h156l-694 -1495h-156zM893 203v108l178 498h201v-498h76v-108h-76v-203h-160v203h-219zM999 311h113v342z" />
<glyph unicode="&#xbf;" horiz-adv-x="782" d="M76 291q0 39 7 73.5t22 67t26.5 53t34 55t31.5 48.5q58 95 86 181t28 185q0 7 -1 22t-1 23h230v-30q0 -232 -95 -412q-7 -14 -26 -50t-26.5 -50.5t-20.5 -43t-18.5 -45.5t-10 -40t-4.5 -43q0 -49 25.5 -79t66.5 -30q57 0 80.5 51t26.5 170l208 -14v-12q0 -193 -88 -295.5 t-251 -102.5q-146 0 -238 90t-92 228zM287 1171v275h278v-275h-278z" />
<glyph unicode="&#xc0;" horiz-adv-x="780" d="M10 0l205 1446h371l186 -1446h-250l-41 309h-207l-36 -309h-228zM106 1917h261l196 -371h-141zM301 547h152l-76 641z" />
<glyph unicode="&#xc1;" horiz-adv-x="780" d="M10 0l205 1446h371l186 -1446h-250l-41 309h-207l-36 -309h-228zM240 1546l196 371h258l-315 -371h-139zM301 547h152l-76 641z" />
<glyph unicode="&#xc2;" horiz-adv-x="780" d="M10 0l205 1446h371l186 -1446h-250l-41 309h-207l-36 -309h-228zM147 1546l158 371h191l157 -371h-112l-142 219l-139 -219h-113zM301 547h152l-76 641z" />
<glyph unicode="&#xc3;" horiz-adv-x="780" d="M10 0l205 1446h371l186 -1446h-250l-41 309h-207l-36 -309h-228zM147 1593q21 122 60 180t104 58q32 0 70 -14l72 -25q28 -8 45 -8q52 0 67 84h88q-20 -123 -61 -182.5t-105 -59.5q-34 0 -59 10l-70 25q-30 12 -51 12q-27 0 -43.5 -19t-27.5 -61h-89zM301 547h152 l-76 641z" />
<glyph unicode="&#xc4;" horiz-adv-x="780" d="M10 0l205 1446h371l186 -1446h-250l-41 309h-207l-36 -309h-228zM170 1606v245h180v-245h-180zM301 547h152l-76 641zM451 1606v245h180v-245h-180z" />
<glyph unicode="&#xc5;" horiz-adv-x="780" d="M10 0l205 1446h123q-89 20 -137.5 80.5t-48.5 150.5q0 100 69 169t170 69q100 0 169 -69t69 -169q0 -85 -49.5 -147t-135.5 -84h142l186 -1446h-250l-41 309h-207l-36 -309h-228zM281 1675q0 -46 31.5 -77t78.5 -31q46 0 77.5 31t31.5 77q0 44 -32.5 77.5t-76.5 33.5 q-46 0 -78 -32.5t-32 -78.5zM301 547h152l-76 641z" />
<glyph unicode="&#xc6;" horiz-adv-x="1208" d="M-47 0l465 1446h760v-240h-342v-336h258v-237h-258v-395h342v-238h-594v309h-293l-105 -309h-233zM356 547h228v641h-25z" />
<glyph unicode="&#xc7;" horiz-adv-x="864" d="M57 690q0 785 400 785q172 0 263 -129t91 -379v-33h-274v67q0 136 -17.5 196t-66.5 60q-68 0 -88.5 -129.5t-20.5 -455.5q0 -249 21.5 -350t89.5 -101q55 0 79.5 76.5t24.5 237.5v20h248q-9 -582 -369 -582q-199 0 -290 175t-91 542zM213 -309q162 -43 256 -43 q52 0 76 17.5t24 55.5t-28 54t-92 16q-38 0 -58 -2v211h103v-90h14q235 0 235 -191q0 -200 -264 -200q-106 0 -266 43v129z" />
<glyph unicode="&#xc8;" horiz-adv-x="749" d="M86 0v1446h621v-240h-342v-336h258v-237h-258v-395h354v-238h-633zM90 1917h260l197 -371h-141z" />
<glyph unicode="&#xc9;" horiz-adv-x="749" d="M86 0v1446h621v-240h-342v-336h258v-237h-258v-395h354v-238h-633zM223 1546l197 371h258l-316 -371h-139z" />
<glyph unicode="&#xca;" horiz-adv-x="749" d="M86 0v1446h621v-240h-342v-336h258v-237h-258v-395h354v-238h-633zM131 1546l158 371h190l158 -371h-113l-141 219l-139 -219h-113z" />
<glyph unicode="&#xcb;" horiz-adv-x="749" d="M86 0v1446h621v-240h-342v-336h258v-237h-258v-395h354v-238h-633zM154 1606v245h180v-245h-180zM434 1606v245h180v-245h-180z" />
<glyph unicode="&#xcc;" horiz-adv-x="450" d="M-59 1917h260l196 -371h-141zM86 0v1446h279v-1446h-279z" />
<glyph unicode="&#xcd;" horiz-adv-x="450" d="M74 1546l196 371h258l-315 -371h-139zM86 0v1446h279v-1446h-279z" />
<glyph unicode="&#xce;" horiz-adv-x="450" d="M-18 1546l157 371h191l157 -371h-112l-142 219l-139 -219h-112zM86 0v1446h279v-1446h-279z" />
<glyph unicode="&#xcf;" horiz-adv-x="450" d="M4 1606v245h180v-245h-180zM86 0v1446h279v-1446h-279zM285 1606v245h180v-245h-180z" />
<glyph unicode="&#xd0;" horiz-adv-x="913" d="M0 653v181h100v612h308q131 0 217 -40.5t137.5 -131.5t72.5 -222.5t21 -328.5q0 -158 -13 -271.5t-43.5 -202.5t-82.5 -142t-128 -80t-181 -27h-308v653h-100zM379 240q10 -2 31 -2q36 0 61 10.5t42 38t27 59t15 89t6.5 112t1.5 143.5q0 214 -6.5 317.5t-28.5 137.5 q-40 61 -131 61h-18v-372h94v-181h-94v-413z" />
<glyph unicode="&#xd1;" horiz-adv-x="901" d="M86 0v1446h256l174 -508q60 -175 74 -281v789h225v-1446h-217l-199 559q-65 179 -88 293v-852h-225zM207 1593q21 122 60 180t104 58q31 0 69 -14l72 -25q28 -8 45 -8q53 0 68 84h88q-20 -123 -61 -182.5t-105 -59.5q-35 0 -60 10l-69 25q-30 12 -51 12q-52 0 -72 -80 h-88z" />
<glyph unicode="&#xd2;" horiz-adv-x="913" d="M57 723q0 390 93.5 570t310.5 180q210 0 302.5 -182t92.5 -568q0 -387 -91.5 -568.5t-301.5 -181.5q-218 0 -312 180.5t-94 569.5zM172 1917h260l197 -371h-142zM350 713q0 -282 20 -390t91 -108q60 0 81 106t21 351q0 323 -18.5 445t-85.5 122q-71 0 -90 -112.5 t-19 -413.5z" />
<glyph unicode="&#xd3;" horiz-adv-x="913" d="M57 723q0 390 93.5 570t310.5 180q210 0 302.5 -182t92.5 -568q0 -387 -91.5 -568.5t-301.5 -181.5q-218 0 -312 180.5t-94 569.5zM305 1546l197 371h258l-316 -371h-139zM350 713q0 -282 20 -390t91 -108q60 0 81 106t21 351q0 323 -18.5 445t-85.5 122 q-71 0 -90 -112.5t-19 -413.5z" />
<glyph unicode="&#xd4;" horiz-adv-x="913" d="M57 723q0 390 93.5 570t310.5 180q210 0 302.5 -182t92.5 -568q0 -387 -91.5 -568.5t-301.5 -181.5q-218 0 -312 180.5t-94 569.5zM213 1546l158 371h190l158 -371h-113l-141 219l-139 -219h-113zM350 713q0 -282 20 -390t91 -108q60 0 81 106t21 351q0 323 -18.5 445 t-85.5 122q-71 0 -90 -112.5t-19 -413.5z" />
<glyph unicode="&#xd5;" horiz-adv-x="913" d="M57 723q0 390 93.5 570t310.5 180q210 0 302.5 -182t92.5 -568q0 -387 -91.5 -568.5t-301.5 -181.5q-218 0 -312 180.5t-94 569.5zM213 1593q21 122 60 180t104 58q31 0 69 -14l72 -25q28 -8 45 -8q53 0 68 84h88q-20 -123 -61 -182.5t-105 -59.5q-34 0 -59 10l-70 25 q-30 12 -51 12q-52 0 -72 -80h-88zM350 713q0 -282 20 -390t91 -108q60 0 81 106t21 351q0 323 -18.5 445t-85.5 122q-71 0 -90 -112.5t-19 -413.5z" />
<glyph unicode="&#xd6;" horiz-adv-x="913" d="M57 723q0 390 93.5 570t310.5 180q210 0 302.5 -182t92.5 -568q0 -387 -91.5 -568.5t-301.5 -181.5q-218 0 -312 180.5t-94 569.5zM236 1606v245h180v-245h-180zM350 713q0 -282 20 -390t91 -108q60 0 81 106t21 351q0 323 -18.5 445t-85.5 122q-71 0 -90 -112.5 t-19 -413.5zM516 1606v245h180v-245h-180z" />
<glyph unicode="&#xd7;" horiz-adv-x="1705" d="M287 152l458 458l-458 461l116 117l459 -459l461 459l117 -117l-459 -461l459 -458l-117 -119l-461 461l-459 -461z" />
<glyph unicode="&#xd8;" horiz-adv-x="913" d="M23 -78l112 250q-82 238 -82 586q0 717 402 717q114 0 229 -86l49 102h154l-103 -227q72 -220 72 -578q0 -717 -395 -717q-106 0 -228 78l-55 -125h-155zM352 641l199 453q-18 147 -92 147q-71 0 -89 -127.5t-18 -472.5zM362 330q24 -115 95 -115q65 0 85.5 106.5 t20.5 368.5v84z" />
<glyph unicode="&#xd9;" horiz-adv-x="874" d="M86 322v1124h279v-1118q0 -117 90 -117q46 0 66 28t20 89v1118h247v-1124q0 -349 -339 -349q-184 0 -273.5 86t-89.5 263zM154 1917h260l196 -371h-141z" />
<glyph unicode="&#xda;" horiz-adv-x="874" d="M86 322v1124h279v-1118q0 -117 90 -117q46 0 66 28t20 89v1118h247v-1124q0 -349 -339 -349q-184 0 -273.5 86t-89.5 263zM287 1546l196 371h258l-315 -371h-139z" />
<glyph unicode="&#xdb;" horiz-adv-x="874" d="M86 322v1124h279v-1118q0 -117 90 -117q46 0 66 28t20 89v1118h247v-1124q0 -349 -339 -349q-184 0 -273.5 86t-89.5 263zM195 1546l157 371h191l157 -371h-112l-142 219l-139 -219h-112z" />
<glyph unicode="&#xdc;" horiz-adv-x="874" d="M86 322v1124h279v-1118q0 -117 90 -117q46 0 66 28t20 89v1118h247v-1124q0 -349 -339 -349q-184 0 -273.5 86t-89.5 263zM217 1606v245h180v-245h-180zM498 1606v245h180v-245h-180z" />
<glyph unicode="&#xdd;" horiz-adv-x="827" d="M12 1446h279l137 -543l164 543h225l-285 -862v-584h-280v584zM262 1546l197 371h258l-316 -371h-139z" />
<glyph unicode="&#xde;" horiz-adv-x="868" d="M86 0v1446h279v-272h59q211 0 311.5 -109t100.5 -336q0 -221 -99 -323.5t-309 -102.5q-40 0 -63 2v-305h-279zM367 537h18q91 0 131.5 48.5t40.5 155.5q0 99 -32.5 146t-102.5 47h-55v-397z" />
<glyph unicode="&#xdf;" horiz-adv-x="837" d="M68 0v1036q0 228 71 327t252 99q158 0 240 -90.5t82 -267.5q0 -192 -99 -258q93 -36 130.5 -143t37.5 -308q0 -205 -72 -301t-229 -96q-41 0 -90 6v197q10 -2 27 -2q65 0 86.5 56t21.5 194q0 152 -20.5 213t-83.5 61q-17 0 -27 -2v194q16 -4 23 -4q34 0 47.5 36.5 t13.5 117.5q0 107 -20.5 154t-73.5 47q-41 0 -59.5 -34.5t-18.5 -107.5v-1124h-239z" />
<glyph unicode="&#xe0;" horiz-adv-x="743" d="M37 279q0 170 94.5 261t290.5 113v142q0 26 -17 42.5t-43 16.5q-34 0 -51 -27t-22 -84l-217 15q10 146 88 220.5t217 74.5q159 0 226 -74t67 -236v-571q0 -88 20 -172h-225q-26 54 -29 92q-82 -117 -188 -117q-89 0 -150 84.5t-61 219.5zM88 1540h260l197 -371h-142z M281 319q0 -62 20.5 -98.5t52.5 -36.5q40 0 68 52v256q-67 -4 -104 -49.5t-37 -123.5z" />
<glyph unicode="&#xe1;" horiz-adv-x="743" d="M37 279q0 170 94.5 261t290.5 113v142q0 26 -17 42.5t-43 16.5q-34 0 -51 -27t-22 -84l-217 15q10 146 88 220.5t217 74.5q159 0 226 -74t67 -236v-571q0 -88 20 -172h-225q-26 54 -29 92q-82 -117 -188 -117q-89 0 -150 84.5t-61 219.5zM221 1169l197 371h258l-316 -371 h-139zM281 319q0 -62 20.5 -98.5t52.5 -36.5q40 0 68 52v256q-67 -4 -104 -49.5t-37 -123.5z" />
<glyph unicode="&#xe2;" horiz-adv-x="743" d="M37 279q0 170 94.5 261t290.5 113v142q0 26 -17 42.5t-43 16.5q-34 0 -51 -27t-22 -84l-217 15q10 146 88 220.5t217 74.5q159 0 226 -74t67 -236v-571q0 -88 20 -172h-225q-26 54 -29 92q-82 -117 -188 -117q-89 0 -150 84.5t-61 219.5zM129 1169l158 371h190l158 -371 h-113l-141 220l-139 -220h-113zM281 319q0 -62 20.5 -98.5t52.5 -36.5q40 0 68 52v256q-67 -4 -104 -49.5t-37 -123.5z" />
<glyph unicode="&#xe3;" horiz-adv-x="743" d="M37 279q0 170 94.5 261t290.5 113v142q0 26 -17 42.5t-43 16.5q-34 0 -51 -27t-22 -84l-217 15q10 146 88 220.5t217 74.5q159 0 226 -74t67 -236v-571q0 -88 20 -172h-225q-26 54 -29 92q-82 -117 -188 -117q-89 0 -150 84.5t-61 219.5zM129 1217q21 122 60 179.5 t104 57.5q31 0 69 -14l72 -25q28 -8 45 -8q53 0 68 84h88q-20 -123 -61 -182.5t-105 -59.5q-31 0 -59 11l-70 24q-30 12 -51 12q-28 0 -44.5 -18.5t-27.5 -60.5h-88zM281 319q0 -62 20.5 -98.5t52.5 -36.5q40 0 68 52v256q-67 -4 -104 -49.5t-37 -123.5z" />
<glyph unicode="&#xe4;" horiz-adv-x="743" d="M37 279q0 170 94.5 261t290.5 113v142q0 26 -17 42.5t-43 16.5q-34 0 -51 -27t-22 -84l-217 15q10 146 88 220.5t217 74.5q159 0 226 -74t67 -236v-571q0 -88 20 -172h-225q-26 54 -29 92q-82 -117 -188 -117q-89 0 -150 84.5t-61 219.5zM152 1229v246h180v-246h-180z M281 319q0 -62 20.5 -98.5t52.5 -36.5q40 0 68 52v256q-67 -4 -104 -49.5t-37 -123.5zM432 1229v246h180v-246h-180z" />
<glyph unicode="&#xe5;" horiz-adv-x="743" d="M37 279q0 170 94.5 261t290.5 113v142q0 26 -17 42.5t-43 16.5q-34 0 -51 -27t-22 -84l-217 15q10 146 88 220.5t217 74.5q159 0 226 -74t67 -236v-571q0 -88 20 -172h-225q-26 54 -29 92q-82 -117 -188 -117q-89 0 -150 84.5t-61 219.5zM150 1391q0 100 69.5 169.5 t169.5 69.5t169 -69.5t69 -169.5t-69 -170t-169 -70t-169.5 70t-69.5 170zM281 319q0 -62 20.5 -98.5t52.5 -36.5q40 0 68 52v256q-67 -4 -104 -49.5t-37 -123.5zM281 1391q0 -46 30.5 -77.5t77.5 -31.5q46 0 78.5 31.5t32.5 77.5q0 44 -33 76t-78 32q-46 0 -77 -31t-31 -77 z" />
<glyph unicode="&#xe6;" horiz-adv-x="1112" d="M47 268q0 179 91.5 270.5t291.5 114.5v142q0 26 -15.5 42.5t-41.5 16.5q-67 0 -76 -111l-215 15q10 144 89 220.5t216 76.5q86 0 193 -66q95 70 184 70q141 0 217 -138t76 -403q0 -51 -2 -78h-375v-32q0 -113 22.5 -166.5t73.5 -53.5q45 0 75 37t36 101l178 -39 q-35 -154 -110.5 -233t-186.5 -79q-116 0 -229 107q-117 -111 -244 -111q-111 0 -179.5 80t-68.5 217zM289 319q0 -61 22 -98t54 -37q37 0 65 52v256q-67 -4 -104 -49.5t-37 -123.5zM674 694q0 -8 1 -26t1 -29h147q0 11 1 29t1 26q0 86 -16.5 124t-58.5 38t-59 -38.5 t-17 -123.5z" />
<glyph unicode="&#xe7;" horiz-adv-x="722" d="M47 492q0 270 88 415.5t242 145.5q136 0 210.5 -95t74.5 -274v-33h-213v43q0 172 -68 172q-41 0 -53.5 -63.5t-12.5 -220.5q0 -220 15.5 -311t62.5 -91q39 0 62.5 53.5t23.5 153.5v12l197 -6q0 -203 -79.5 -310.5t-225.5 -107.5q-160 0 -242 130.5t-82 386.5zM139 -309 q162 -43 256 -43q53 0 77 17.5t24 55.5t-28.5 54t-92.5 16q-38 0 -58 -2v211h103v-90h14q236 0 236 -191q0 -200 -264 -200q-107 0 -267 43v129z" />
<glyph unicode="&#xe8;" horiz-adv-x="745" d="M47 502q0 266 88 408.5t244 142.5q152 0 231.5 -134.5t79.5 -396.5q0 -55 -2 -84h-375v-32q0 -113 22.5 -166.5t74.5 -53.5q45 0 74.5 37t35.5 101l178 -39q-34 -154 -111.5 -233t-195.5 -79q-156 0 -250 140t-94 389zM88 1540h260l197 -371h-142zM305 694q0 -35 2 -55 h146q2 20 2 59q0 81 -17.5 119.5t-56.5 38.5q-76 0 -76 -162z" />
<glyph unicode="&#xe9;" horiz-adv-x="745" d="M47 502q0 266 88 408.5t244 142.5q152 0 231.5 -134.5t79.5 -396.5q0 -55 -2 -84h-375v-32q0 -113 22.5 -166.5t74.5 -53.5q45 0 74.5 37t35.5 101l178 -39q-34 -154 -111.5 -233t-195.5 -79q-156 0 -250 140t-94 389zM221 1169l197 371h258l-316 -371h-139zM305 694 q0 -35 2 -55h146q2 20 2 59q0 81 -17.5 119.5t-56.5 38.5q-76 0 -76 -162z" />
<glyph unicode="&#xea;" horiz-adv-x="745" d="M47 502q0 266 88 408.5t244 142.5q152 0 231.5 -134.5t79.5 -396.5q0 -55 -2 -84h-375v-32q0 -113 22.5 -166.5t74.5 -53.5q45 0 74.5 37t35.5 101l178 -39q-34 -154 -111.5 -233t-195.5 -79q-156 0 -250 140t-94 389zM129 1169l158 371h190l158 -371h-113l-141 220 l-139 -220h-113zM305 694q0 -35 2 -55h146q2 20 2 59q0 81 -17.5 119.5t-56.5 38.5q-76 0 -76 -162z" />
<glyph unicode="&#xeb;" horiz-adv-x="745" d="M47 502q0 266 88 408.5t244 142.5q152 0 231.5 -134.5t79.5 -396.5q0 -55 -2 -84h-375v-32q0 -113 22.5 -166.5t74.5 -53.5q45 0 74.5 37t35.5 101l178 -39q-34 -154 -111.5 -233t-195.5 -79q-156 0 -250 140t-94 389zM152 1229v246h180v-246h-180zM305 694q0 -35 2 -55 h146q2 20 2 59q0 81 -17.5 119.5t-56.5 38.5q-76 0 -76 -162zM432 1229v246h180v-246h-180z" />
<glyph unicode="&#xec;" horiz-adv-x="397" d="M-86 1540h260l197 -371h-142zM80 0v1028h237v-1028h-237z" />
<glyph unicode="&#xed;" horiz-adv-x="397" d="M47 1169l197 371h258l-316 -371h-139zM80 0v1028h237v-1028h-237z" />
<glyph unicode="&#xee;" horiz-adv-x="397" d="M-45 1169l158 371h190l158 -371h-113l-141 220l-139 -220h-113zM80 0v1028h237v-1028h-237z" />
<glyph unicode="&#xef;" horiz-adv-x="397" d="M-23 1229v246h181v-246h-181zM80 0v1028h237v-1028h-237zM258 1229v246h180v-246h-180z" />
<glyph unicode="&#xf0;" horiz-adv-x="782" d="M47 479q0 238 87 371t228 133q39 0 91 -22q-14 56 -70 159l-209 -92l-49 119l192 88q-19 39 -102 119l125 100q103 -86 145 -147l203 92l53 -119l-186 -82q180 -260 180 -686q0 -261 -89.5 -398t-254.5 -137q-164 0 -254 129t-90 373zM295 461q0 -154 22 -225.5t74 -71.5 q53 0 77 82t24 254q0 159 -22 228t-79 69q-56 0 -76 -78t-20 -258z" />
<glyph unicode="&#xf1;" horiz-adv-x="757" d="M82 0v1028h237v-92q51 61 98 90t101 29q84 0 124 -50.5t40 -152.5v-852h-238v774q0 33 -14 51.5t-39 18.5q-53 0 -72 -64v-780h-237zM135 1217q21 122 60 179.5t104 57.5q32 0 70 -14l71 -25q28 -8 45 -8q53 0 68 84h88q-20 -123 -61 -182.5t-105 -59.5q-31 0 -59 11 l-70 24q-30 12 -51 12q-28 0 -44.5 -18.5t-27.5 -60.5h-88z" />
<glyph unicode="&#xf2;" horiz-adv-x="782" d="M47 512q0 268 87.5 405.5t256.5 137.5t256.5 -137t87.5 -406q0 -260 -90 -397.5t-254 -137.5q-167 0 -255.5 137t-88.5 398zM106 1540h261l196 -371h-141zM299 514q0 -176 21 -259t71 -83q53 0 72.5 80.5t19.5 261.5q0 187 -18.5 265.5t-73.5 78.5q-51 0 -71.5 -81.5 t-20.5 -262.5z" />
<glyph unicode="&#xf3;" horiz-adv-x="782" d="M47 512q0 268 87.5 405.5t256.5 137.5t256.5 -137t87.5 -406q0 -260 -90 -397.5t-254 -137.5q-167 0 -255.5 137t-88.5 398zM240 1169l196 371h258l-315 -371h-139zM299 514q0 -176 21 -259t71 -83q53 0 72.5 80.5t19.5 261.5q0 187 -18.5 265.5t-73.5 78.5 q-51 0 -71.5 -81.5t-20.5 -262.5z" />
<glyph unicode="&#xf4;" horiz-adv-x="782" d="M47 512q0 268 87.5 405.5t256.5 137.5t256.5 -137t87.5 -406q0 -260 -90 -397.5t-254 -137.5q-167 0 -255.5 137t-88.5 398zM147 1169l158 371h191l157 -371h-112l-142 220l-139 -220h-113zM299 514q0 -176 21 -259t71 -83q53 0 72.5 80.5t19.5 261.5q0 187 -18.5 265.5 t-73.5 78.5q-51 0 -71.5 -81.5t-20.5 -262.5z" />
<glyph unicode="&#xf5;" horiz-adv-x="782" d="M47 512q0 268 87.5 405.5t256.5 137.5t256.5 -137t87.5 -406q0 -260 -90 -397.5t-254 -137.5q-167 0 -255.5 137t-88.5 398zM147 1217q21 122 60 179.5t104 57.5q32 0 70 -14l72 -25q28 -8 45 -8q52 0 67 84h88q-20 -123 -61 -182.5t-105 -59.5q-31 0 -59 11l-70 24 q-30 12 -51 12q-27 0 -43.5 -18.5t-27.5 -60.5h-89zM299 514q0 -176 21 -259t71 -83q53 0 72.5 80.5t19.5 261.5q0 187 -18.5 265.5t-73.5 78.5q-51 0 -71.5 -81.5t-20.5 -262.5z" />
<glyph unicode="&#xf6;" horiz-adv-x="782" d="M47 512q0 268 87.5 405.5t256.5 137.5t256.5 -137t87.5 -406q0 -260 -90 -397.5t-254 -137.5q-167 0 -255.5 137t-88.5 398zM170 1229v246h180v-246h-180zM299 514q0 -176 21 -259t71 -83q53 0 72.5 80.5t19.5 261.5q0 187 -18.5 265.5t-73.5 78.5q-51 0 -71.5 -81.5 t-20.5 -262.5zM451 1229v246h180v-246h-180z" />
<glyph unicode="&#xf7;" horiz-adv-x="1705" d="M254 528v166h1198v-166h-1198zM717 229q0 57 40.5 97.5t96.5 40.5q57 0 97 -40.5t40 -97.5q0 -56 -39.5 -95.5t-97.5 -39.5t-97.5 39t-39.5 96zM717 989q0 57 40.5 98t96.5 41q57 0 97 -41t40 -98q0 -56 -39.5 -95.5t-97.5 -39.5t-97.5 39t-39.5 96z" />
<glyph unicode="&#xf8;" horiz-adv-x="782" d="M27 -80l104 203q-84 161 -84 395q0 256 90 395.5t246 139.5q85 0 176 -54l62 123h133l-105 -207q86 -172 86 -407q0 -258 -90 -395.5t-254 -137.5q-91 0 -174 56l-59 -111h-131zM299 463l164 325q-18 74 -72 74q-50 0 -71 -78.5t-21 -246.5v-74zM319 262q6 -42 25.5 -66 t46.5 -24q54 0 73 85.5t19 285.5v47z" />
<glyph unicode="&#xf9;" horiz-adv-x="755" d="M82 174v854h235v-774q0 -34 14.5 -53t39.5 -19q54 0 73 64v782h236v-856q0 -79 22 -172h-258v90q-99 -117 -200 -117q-84 0 -123 49.5t-39 151.5zM94 1540h260l197 -371h-141z" />
<glyph unicode="&#xfa;" horiz-adv-x="755" d="M82 174v854h235v-774q0 -34 14.5 -53t39.5 -19q54 0 73 64v782h236v-856q0 -79 22 -172h-258v90q-99 -117 -200 -117q-84 0 -123 49.5t-39 151.5zM227 1169l197 371h258l-315 -371h-140z" />
<glyph unicode="&#xfb;" horiz-adv-x="755" d="M82 174v854h235v-774q0 -34 14.5 -53t39.5 -19q54 0 73 64v782h236v-856q0 -79 22 -172h-258v90q-99 -117 -200 -117q-84 0 -123 49.5t-39 151.5zM135 1169l158 371h190l158 -371h-113l-141 220l-139 -220h-113z" />
<glyph unicode="&#xfc;" horiz-adv-x="755" d="M82 174v854h235v-774q0 -34 14.5 -53t39.5 -19q54 0 73 64v782h236v-856q0 -79 22 -172h-258v90q-99 -117 -200 -117q-84 0 -123 49.5t-39 151.5zM158 1229v246h180v-246h-180zM438 1229v246h180v-246h-180z" />
<glyph unicode="&#xfd;" horiz-adv-x="669" d="M25 1028h237l78 -416q14 -78 25 -206q13 158 20 202l61 420h201l-188 -1079q-30 -175 -108.5 -248.5t-244.5 -73.5q-44 0 -71 2v207q46 -4 63 -4q146 0 146 107q0 32 -8 71zM184 1169l197 371h258l-315 -371h-140z" />
<glyph unicode="&#xfe;" horiz-adv-x="763" d="M80 -375v1831h237v-479q82 76 170 76q121 0 175.5 -125t54.5 -387q0 -277 -60.5 -413t-187.5 -136q-45 0 -86 19t-66 52v-438h-237zM317 223q0 -71 52 -71q57 0 72.5 86.5t15.5 312.5q0 177 -15.5 254.5t-60.5 77.5q-27 0 -45.5 -21t-18.5 -51v-588z" />
<glyph unicode="&#xff;" horiz-adv-x="669" d="M25 1028h237l78 -416q14 -78 25 -206q13 158 20 202l61 420h201l-188 -1079q-30 -175 -108.5 -248.5t-244.5 -73.5q-44 0 -71 2v207q46 -4 63 -4q146 0 146 107q0 32 -8 71zM115 1229v246h180v-246h-180zM395 1229v246h180v-246h-180z" />
<glyph unicode="&#x152;" horiz-adv-x="1196" d="M57 715q0 383 91.5 557t310.5 174h694v-238h-340v-336h256v-239h-256v-395h340v-238h-647q-130 0 -216 39.5t-138 129t-73.5 220t-21.5 326.5zM336 717q0 -106 3.5 -177.5t12 -132t24.5 -95t41.5 -53.5t61.5 -19q40 0 56 27t16 87v750q0 40 -23 64t-61 24 q-30 0 -51.5 -11.5t-36 -40t-23 -62t-13 -93.5t-6 -118t-1.5 -150z" />
<glyph unicode="&#x153;" horiz-adv-x="1183" d="M47 510q0 266 87.5 403.5t252.5 137.5q117 0 223 -97q108 99 215 99q147 0 225 -135t78 -396q0 -55 -2 -84h-370q0 -9 -1 -27t-1 -26q0 -199 94 -199q45 0 74.5 37t35.5 101l179 -39q-73 -312 -310 -312q-115 0 -215 97q-115 -95 -229 -95q-157 0 -246.5 139t-89.5 396z M299 514q0 -178 21 -260t71 -82q53 0 72.5 80.5t19.5 261.5q0 188 -19 268t-73 80q-51 0 -71.5 -83.5t-20.5 -264.5zM745 694q0 -25 3 -55h147q2 20 2 55q0 162 -76 162t-76 -162z" />
<glyph unicode="&#x178;" horiz-adv-x="827" d="M12 1446h279l137 -543l164 543h225l-285 -862v-584h-280v584zM193 1606v245h180v-245h-180zM473 1606v245h180v-245h-180z" />
<glyph unicode="&#x2c6;" horiz-adv-x="1024" d="M268 1169l158 371h190l158 -371h-112l-142 220l-139 -220h-113z" />
<glyph unicode="&#x2dc;" horiz-adv-x="1024" d="M268 1217q21 122 60 179.5t104 57.5q32 0 70 -14l71 -25q28 -8 45 -8q53 0 68 84h88q-20 -123 -61 -182.5t-105 -59.5q-32 0 -59 11l-70 24q-30 12 -51 12q-28 0 -44.5 -18.5t-27.5 -60.5h-88z" />
<glyph unicode="&#x2000;" horiz-adv-x="958" />
<glyph unicode="&#x2001;" horiz-adv-x="1917" />
<glyph unicode="&#x2002;" horiz-adv-x="958" />
<glyph unicode="&#x2003;" horiz-adv-x="1917" />
<glyph unicode="&#x2004;" horiz-adv-x="639" />
<glyph unicode="&#x2005;" horiz-adv-x="479" />
<glyph unicode="&#x2006;" horiz-adv-x="319" />
<glyph unicode="&#x2007;" horiz-adv-x="319" />
<glyph unicode="&#x2008;" horiz-adv-x="239" />
<glyph unicode="&#x2009;" horiz-adv-x="383" />
<glyph unicode="&#x200a;" horiz-adv-x="106" />
<glyph unicode="&#x2010;" horiz-adv-x="512" d="M63 422v213h381v-213h-381z" />
<glyph unicode="&#x2011;" horiz-adv-x="512" d="M63 422v213h381v-213h-381z" />
<glyph unicode="&#x2012;" horiz-adv-x="512" d="M63 422v213h381v-213h-381z" />
<glyph unicode="&#x2013;" horiz-adv-x="1024" d="M0 442v168h1024v-168h-1024z" />
<glyph unicode="&#x2014;" horiz-adv-x="2048" d="M0 442v168h2048v-168h-2048z" />
<glyph unicode="&#x2018;" horiz-adv-x="409" d="M55 899v213l193 344h88l-86 -287h82v-270h-277z" />
<glyph unicode="&#x2019;" horiz-adv-x="409" d="M68 899l86 287h-82v270h276v-215l-192 -342h-88z" />
<glyph unicode="&#x201a;" horiz-adv-x="409" d="M61 -289l86 287h-81v270h276v-213l-192 -344h-89z" />
<glyph unicode="&#x201c;" horiz-adv-x="761" d="M53 899v213l191 344h90l-86 -287h82v-270h-277zM406 899v213l192 344h88l-86 -287h82v-270h-276z" />
<glyph unicode="&#x201d;" horiz-adv-x="761" d="M66 899l86 287h-82v270h276v-215l-190 -342h-90zM420 899l86 287h-82v270h274v-215l-190 -342h-88z" />
<glyph unicode="&#x201e;" horiz-adv-x="761" d="M63 -287l87 287h-80v270h276v-213l-192 -344h-91zM418 -287l86 287h-82v270h276v-213l-192 -344h-88z" />
<glyph unicode="&#x2022;" horiz-adv-x="1208" d="M307 762q0 123 87 209t210 86q122 0 208.5 -86t86.5 -209q0 -122 -87 -209.5t-210 -87.5t-209 87t-86 210z" />
<glyph unicode="&#x2026;" horiz-adv-x="2048" d="M205 0v279h278v-279h-278zM887 0v279h278v-279h-278zM1571 0v279h278v-279h-278z" />
<glyph unicode="&#x202f;" horiz-adv-x="383" />
<glyph unicode="&#x2039;" horiz-adv-x="462" d="M39 518l235 434l164 -65l-194 -369l198 -371l-168 -65z" />
<glyph unicode="&#x203a;" horiz-adv-x="462" d="M16 887l168 65l236 -434l-236 -436l-164 65l195 371z" />
<glyph unicode="&#x205f;" horiz-adv-x="479" />
<glyph unicode="&#x20ac;" d="M-20 539l43 123h75v120h-118l43 125h83q19 278 108 420.5t241 142.5q147 0 236.5 -128.5t99.5 -364.5h-261q0 14 -1 41t-1 39q0 62 -2.5 99t-10 67.5t-23 43.5t-39.5 13q-54 0 -66.5 -67t-13.5 -252v-54h241l-45 -125h-196v-120h153l-45 -123h-108q2 -197 17 -273t71 -76 q34 0 53.5 31.5t26.5 88.5t8 157h237q-12 -243 -97.5 -367.5t-237.5 -124.5q-151 0 -241.5 144.5t-105.5 419.5h-124z" />
<glyph unicode="&#x2122;" horiz-adv-x="1705" d="M225 1366v94h467v-94h-168v-448h-129v448h-170zM809 918v542h170l141 -360l133 360h170v-542h-114v428l-160 -428h-59l-166 428v-428h-115z" />
<glyph unicode="&#x25fc;" horiz-adv-x="1024" d="M0 0v1024h1024v-1024h-1024z" />
<glyph unicode="&#xfb01;" horiz-adv-x="909" d="M0 829v199h127v205q0 122 55.5 176.5t182.5 54.5q68 0 151 -26v-191q-37 6 -63 6q-42 0 -65 -21.5t-23 -60.5v-143h147v-199h-147v-829h-238v829h-127zM592 0v1028h237v-1028h-237zM592 1196v248h237v-248h-237z" />
<glyph unicode="&#xfb02;" horiz-adv-x="909" d="M0 829v199h127v205q0 122 55.5 176.5t182.5 54.5q68 0 151 -26v-191q-37 6 -63 6q-42 0 -65 -21.5t-23 -60.5v-143h147v-199h-147v-829h-238v829h-127zM592 0v1456h237v-1456h-237z" />
</font>
</defs>
</svg>
